<svg xmlns="http://www.w3.org/2000/svg" width="636" height="564" viewBox="0 0 636 564">
<g>
<path d="M 0.00 0.00 L 636.00 0.00 L 636.00 564.00 L 0.00 564.00 ZM 427.67 458.33 C428.03,458.70 439.06,459.00 452.17,459.00 L 476.00 459.00 L 476.00 197.00 L 463.00 197.00 L 463.00 188.08 C463.00,183.18 462.73,178.45 462.39,177.58 C461.86,176.19 458.50,176.00 434.91,176.00 L 408.04 176.00 L 407.49 178.25 C407.20,179.49 407.08,239.68 407.23,312.00 L 407.50 443.50 L 415.86 443.79 C425.98,444.15 427.00,444.92 427.00,452.26 C427.00,455.23 427.30,457.97 427.67,458.33 ZM 341.80 452.27 L 342.09 459.03 L 367.30 458.77 L 392.50 458.50 L 392.77 358.00 C392.93,302.73 392.81,256.51 392.52,255.30 C392.05,253.36 391.23,253.06 385.74,252.80 L 379.50 252.50 L 379.21 244.05 C379.04,239.40 378.43,235.01 377.83,234.30 C377.00,233.29 370.81,233.00 350.41,233.00 C325.39,233.00 324.02,233.10 323.04,234.93 C321.40,237.99 321.61,442.63 323.25,443.69 C323.94,444.14 328.33,444.73 333.00,445.00 L 341.50 445.50 ZM 257.48 452.66 L 258.16 459.03 L 282.83 458.77 L 307.50 458.50 L 307.50 296.50 L 294.50 295.50 L 294.21 286.55 C294.05,281.63 293.43,277.02 292.84,276.30 C291.22,274.36 240.73,274.41 239.12,276.36 C238.29,277.35 238.06,300.20 238.24,360.61 L 238.50 443.50 L 246.97 443.79 C251.74,443.96 255.73,444.57 256.12,445.19 C256.49,445.80 257.11,449.16 257.48,452.66 ZM 173.50 457.77 C173.85,458.75 179.43,458.98 198.73,458.77 L 223.50 458.50 L 223.50 327.50 L 218.50 327.24 C213.63,326.98 211.25,326.97 210.09,325.77 C208.99,324.63 208.99,322.41 209.00,317.90 C209.00,317.51 209.00,317.11 209.00,316.68 C209.00,310.80 208.56,306.96 207.80,306.20 C206.93,305.33 199.58,305.00 181.00,305.00 C162.42,305.00 155.07,305.33 154.20,306.20 C152.38,308.02 152.47,442.32 154.30,443.83 C155.01,444.43 159.40,445.04 164.05,445.21 L 172.50 445.50 L 172.78 451.00 C172.93,454.02 173.26,457.07 173.50,457.77 ZM 427.25 317.25 L 426.99 437.00 L 420.60 437.00 C416.35,437.00 414.09,436.58 413.86,435.75 C413.66,435.06 413.62,377.69 413.76,308.25 L 414.02 182.00 L 457.00 182.00 L 457.00 196.95 L 427.50 197.50 ZM 340.87 437.65 C339.73,439.03 330.90,439.57 329.67,438.33 C329.30,437.97 329.00,392.96 329.00,338.31 L 329.00 238.96 L 372.50 239.50 L 372.80 246.22 L 373.09 252.95 L 357.80 253.22 L 342.50 253.50 L 342.24 344.90 C342.06,410.42 341.67,436.69 340.87,437.65 ZM 157.00 227.18 C160.26,228.19 194.19,227.32 204.50,225.97 C220.23,223.91 232.47,221.84 240.00,219.99 C241.93,219.51 245.75,218.60 248.50,217.95 C257.72,215.78 276.72,209.61 288.50,204.97 C336.03,186.25 380.48,154.76 413.28,116.61 C418.90,110.07 425.52,102.39 428.00,99.54 C430.48,96.69 433.85,92.52 435.50,90.27 L 438.50 86.17 L 439.00 107.73 C439.44,126.75 439.70,129.41 441.23,130.38 C442.57,131.22 443.36,131.07 444.73,129.70 C446.33,128.10 446.51,125.34 446.61,101.21 C446.68,84.93 446.32,73.62 445.70,72.25 L 444.68 70.00 L 416.46 70.00 C391.94,70.00 388.07,70.21 386.93,71.58 C385.98,72.73 385.90,73.63 386.67,74.83 C387.58,76.29 390.76,76.56 411.88,77.00 L 436.05 77.50 L 432.77 82.53 C418.74,104.09 389.87,135.19 367.00,153.38 C360.06,158.89 335.49,175.26 325.96,180.71 C302.05,194.38 271.83,206.34 244.50,212.94 C225.50,217.52 220.95,218.26 210.71,218.40 C206.64,218.46 203.63,218.98 203.19,219.69 C202.68,220.52 195.17,221.13 178.48,221.69 C155.63,222.46 154.50,222.59 154.50,224.45 C154.50,225.67 155.45,226.70 157.00,227.18 ZM 257.35 432.75 L 256.72 438.00 L 251.03 438.00 C247.90,438.00 245.03,437.70 244.67,437.33 C244.30,436.97 244.00,401.64 244.00,358.83 L 244.00 281.00 L 288.00 281.00 L 288.00 296.00 L 258.00 296.00 L 257.99 361.75 C257.99,397.91 257.70,429.86 257.35,432.75 ZM 173.50 327.50 L 172.98 439.00 L 167.19 439.00 C164.01,439.00 160.86,438.46 160.20,437.80 C159.29,436.89 159.00,421.56 159.00,374.91 C159.00,319.57 159.16,313.15 160.58,312.61 C161.45,312.27 171.35,312.00 182.58,312.00 L 203.00 312.00 L 203.00 326.95 Z" fill="rgb(0,0,0)"/>
<path d="M 441.00 437.13 C441.00,437.61 439.03,438.00 436.62,438.00 C432.79,438.00 432.10,437.66 431.11,435.25 C430.28,433.24 430.04,401.95 430.23,318.79 C430.26,305.91 430.28,294.43 430.29,284.21 C430.37,215.57 430.39,203.17 434.86,201.27 C435.85,200.85 437.05,200.94 438.52,201.05 C439.51,201.13 440.63,201.21 441.88,201.16 C449.40,200.82 449.78,200.91 451.85,203.54 L 454.00 206.27 L 454.00 430.09 L 451.57 432.52 C450.19,433.90 447.37,435.24 445.07,435.61 C442.83,435.96 441.00,436.65 441.00,437.13 ZM 361.00 437.00 C361.00,437.56 358.23,438.00 354.69,438.00 C353.97,438.00 353.31,438.04 352.69,438.07 C351.29,438.15 350.15,438.21 349.22,437.79 C345.11,435.98 345.09,424.93 344.99,365.16 C344.98,359.23 344.97,352.81 344.96,345.87 C344.85,298.92 345.08,259.75 345.46,258.83 C345.99,257.56 348.09,257.01 354.44,256.48 C363.04,255.76 367.00,256.70 367.00,259.46 C367.00,260.23 368.12,261.74 369.50,262.82 L 372.00 264.79 L 372.00 347.64 L 372.00 430.50 L 367.64 433.25 C365.25,434.76 362.77,436.00 362.15,436.00 C361.52,436.00 361.00,436.45 361.00,437.00 ZM 278.00 437.07 C278.00,437.58 275.98,438.00 273.50,438.00 C271.02,438.00 269.00,437.55 269.00,437.00 C269.00,436.45 267.72,436.00 266.16,436.00 C264.12,436.00 263.01,435.31 262.21,433.56 C261.43,431.85 261.05,411.67 260.95,366.94 C260.83,313.88 261.04,302.53 262.17,301.40 C263.92,299.65 274.48,298.20 278.88,299.10 C282.66,299.88 284.22,301.65 283.42,304.23 C283.09,305.29 283.88,306.97 285.44,308.53 L 288.00 311.09 L 288.00 429.24 L 284.75 432.11 C282.96,433.69 280.71,435.24 279.75,435.56 C278.79,435.88 278.00,436.55 278.00,437.07 ZM 197.00 437.25 C197.00,437.66 196.10,438.00 195.00,438.00 C193.90,438.00 193.00,437.59 193.00,437.10 C193.00,435.43 187.09,434.02 184.40,435.04 C182.73,435.67 181.21,435.65 179.93,434.96 C178.06,433.96 178.00,432.34 178.02,383.21 C178.02,355.32 178.36,332.00 178.77,331.40 C180.77,328.40 183.81,327.96 188.83,329.93 C191.54,331.00 194.71,331.63 195.86,331.33 C197.02,331.02 199.10,331.06 200.48,331.41 L 203.00 332.04 L 203.00 382.27 L 202.99 432.50 L 200.00 434.50 C198.35,435.60 197.00,436.84 197.00,437.25 ZM 459.04 456.58 C454.34,456.69 446.64,457.04 441.92,457.36 C432.32,458.00 430.99,457.41 431.02,452.55 C431.04,446.84 431.65,446.59 446.35,446.31 C459.02,446.08 460.09,445.90 464.33,443.34 L 468.84 440.61 L 466.92 436.84 C465.06,433.20 465.00,429.65 465.02,325.79 C465.03,265.21 465.44,215.70 465.97,212.08 C466.96,205.22 469.97,200.57 472.05,202.65 C472.81,203.41 473.10,238.16 473.03,319.59 C472.95,421.54 472.76,435.72 471.42,437.77 C470.03,439.89 470.07,440.37 471.89,443.32 C473.84,446.48 473.85,446.63 472.05,450.65 C471.04,452.91 469.62,455.12 468.89,455.57 C468.17,456.01 463.74,456.47 459.04,456.58 ZM 361.90 456.83 C356.03,458.19 355.56,458.22 354.68,457.34 C354.32,456.98 352.37,456.42 350.34,456.09 C347.44,455.62 346.46,454.89 345.72,452.65 C343.98,447.44 346.20,446.52 360.78,446.45 C370.62,446.41 374.63,445.97 378.50,444.53 C385.51,441.92 385.67,441.64 383.20,436.68 L 381.02 432.33 L 380.99 353.91 C380.97,310.77 381.23,274.08 381.58,272.36 C381.95,270.51 381.76,268.97 381.10,268.56 C379.93,267.84 379.60,261.21 380.61,258.58 C381.45,256.37 385.61,256.61 388.00,259.00 C389.10,260.10 390.01,261.34 390.02,261.75 C390.03,262.16 390.05,304.74 390.07,356.37 C390.07,365.12 390.08,373.07 390.08,380.31 C390.14,443.53 390.15,452.05 386.28,454.54 C385.23,455.22 383.90,455.45 382.21,456.21 C378.39,457.92 377.33,457.99 372.43,456.90 C368.19,455.95 365.80,455.93 361.90,456.83 ZM 296.50 455.00 C289.29,456.78 267.02,457.39 264.50,455.88 C260.53,453.48 260.18,451.82 263.05,448.95 C264.80,447.20 266.20,446.94 272.80,447.12 C280.68,447.34 289.37,446.14 294.23,444.17 L 296.95 443.07 L 296.99 373.31 C296.99,371.38 296.99,369.51 296.99,367.68 C297.01,312.90 297.02,301.67 299.57,301.06 C300.23,300.90 301.05,301.45 302.09,302.14 C302.23,302.23 302.37,302.32 302.51,302.41 L 305.14 304.14 L 304.82 378.21 C304.54,442.84 304.31,452.38 303.00,453.02 C302.17,453.43 299.25,454.32 296.50,455.00 ZM 206.77 455.90 C202.86,457.38 191.64,458.17 190.00,457.07 C189.18,456.52 186.81,456.33 184.76,456.66 C178.57,457.64 176.12,453.79 179.58,448.52 C180.94,446.44 181.48,446.26 183.58,447.22 C185.36,448.03 186.67,448.02 188.55,447.16 C189.95,446.52 194.24,446.00 198.09,446.00 C203.06,446.00 206.19,445.43 208.92,444.04 C213.53,441.69 214.56,439.51 212.52,436.39 C211.21,434.39 211.00,427.21 211.00,384.57 C211.00,336.65 211.06,335.04 212.93,334.04 C215.93,332.43 217.81,332.80 219.21,335.25 C220.42,337.37 220.57,355.11 220.09,442.62 C220.07,446.53 219.60,450.92 219.05,452.37 C218.18,454.67 217.49,455.00 213.59,455.00 C211.14,455.00 208.07,455.40 206.77,455.90 Z" fill="rgb(5,126,56)"/>
<path d="M 427.25 317.25 L 427.50 197.50 L 457.00 196.95 L 457.00 309.53 C457.00,410.66 456.74,437.15 455.75,437.49 C453.46,438.28 428.00,438.51 428.00,437.75 C428.00,437.34 424.90,437.00 421.11,437.00 L 426.99 437.00 ZM 441.00 437.13 C441.00,436.65 442.83,435.96 445.07,435.61 C447.37,435.24 450.19,433.90 451.57,432.52 L 454.00 430.09 L 454.00 206.27 L 451.85 203.54 C449.78,200.91 449.40,200.82 441.88,201.16 C440.63,201.21 439.51,201.13 438.52,201.05 C437.05,200.94 435.85,200.85 434.86,201.27 C430.39,203.17 430.37,215.57 430.29,284.21 C430.28,294.43 430.26,305.91 430.23,318.79 C430.04,401.95 430.28,433.24 431.11,435.25 C432.10,437.66 432.79,438.00 436.62,438.00 C439.03,438.00 441.00,437.61 441.00,437.13 ZM 173.50 327.50 L 203.00 326.95 L 203.00 438.00 L 191.15 438.00 C185.65,438.00 178.14,438.19 172.99,438.45 ZM 257.48 452.66 C257.11,449.16 256.49,445.80 256.12,445.19 C255.73,444.57 251.74,443.96 246.97,443.79 L 238.50 443.50 L 247.99 443.79 C253.21,443.95 257.91,444.51 258.44,445.04 C259.95,446.55 290.25,446.27 292.37,444.72 C294.01,443.52 294.11,438.35 294.03,360.54 C293.97,302.45 293.63,277.58 292.87,276.34 C293.45,277.17 294.05,281.71 294.21,286.55 L 294.50 295.50 L 307.50 296.50 L 307.50 458.50 L 282.83 458.77 L 258.16 459.03 ZM 197.00 437.25 C197.00,436.84 198.35,435.60 200.00,434.50 L 202.99 432.50 L 203.00 382.27 L 203.00 332.04 L 200.48 331.41 C199.10,331.06 197.02,331.02 195.86,331.33 C194.71,331.63 191.54,331.00 188.83,329.93 C183.81,327.96 180.77,328.40 178.77,331.40 C178.36,332.00 178.02,355.32 178.02,383.21 C178.00,432.34 178.06,433.96 179.93,434.96 C181.21,435.65 182.73,435.67 184.40,435.04 C187.09,434.02 193.00,435.43 193.00,437.10 C193.00,437.59 193.90,438.00 195.00,438.00 C196.10,438.00 197.00,437.66 197.00,437.25 ZM 427.67 458.33 C427.30,457.97 427.00,455.23 427.00,452.26 C427.00,444.92 425.98,444.15 415.86,443.79 L 407.50 443.50 L 416.50 443.76 C421.45,443.90 426.40,444.45 427.50,444.99 C428.60,445.52 431.75,446.11 434.50,446.31 C436.15,446.42 438.23,446.47 440.50,446.46 C431.48,446.80 431.04,447.72 431.02,452.55 C430.99,457.41 432.32,458.00 441.92,457.36 C446.64,457.04 454.34,456.69 459.04,456.58 C463.74,456.47 468.17,456.01 468.89,455.57 C469.62,455.12 471.04,452.91 472.05,450.65 C473.85,446.63 473.84,446.48 471.89,443.32 C470.07,440.37 470.03,439.89 471.42,437.77 C472.76,435.72 472.95,421.54 473.03,319.59 C473.10,238.16 472.81,203.41 472.05,202.65 C469.97,200.57 466.96,205.22 465.97,212.08 C465.44,215.70 465.03,265.21 465.02,325.79 C465.00,429.65 465.06,433.20 466.92,436.84 L 468.84 440.61 L 464.33 443.34 C463.36,443.92 462.56,444.38 461.75,444.75 L 461.75 444.74 C462.74,443.96 463.00,416.10 463.00,311.46 C463.00,238.70 462.73,178.45 462.39,177.58 C462.73,178.45 463.00,183.18 463.00,188.08 L 463.00 197.00 L 476.00 197.00 L 476.00 459.00 L 452.17 459.00 C439.06,459.00 428.03,458.70 427.67,458.33 ZM 296.50 455.00 C299.25,454.32 302.17,453.43 303.00,453.02 C304.31,452.38 304.54,442.84 304.82,378.21 L 305.14 304.14 L 302.51 302.41 C302.37,302.32 302.23,302.23 302.09,302.14 C301.05,301.45 300.23,300.90 299.57,301.06 C297.02,301.67 297.01,312.90 296.99,367.68 C296.99,369.51 296.99,371.38 296.99,373.31 L 296.95 443.07 L 294.23 444.17 C289.37,446.14 280.68,447.34 272.80,447.12 C266.20,446.94 264.80,447.20 263.05,448.95 C260.18,451.82 260.53,453.48 264.50,455.88 C267.02,457.39 289.29,456.78 296.50,455.00 ZM 341.80 452.27 L 341.51 445.63 C342.97,445.72 344.48,445.79 346.00,445.87 C352.49,446.18 357.58,446.37 361.63,446.45 C361.35,446.45 361.07,446.45 360.78,446.45 C346.20,446.52 343.98,447.44 345.72,452.65 C346.46,454.89 347.44,455.62 350.34,456.09 C352.37,456.42 354.32,456.98 354.68,457.34 C355.56,458.22 356.03,458.19 361.90,456.83 C365.80,455.93 368.19,455.95 372.43,456.90 C377.33,457.99 378.39,457.92 382.21,456.21 C383.90,455.45 385.23,455.22 386.28,454.54 C390.15,452.05 390.14,443.53 390.08,380.31 C390.08,373.07 390.07,365.12 390.07,356.37 C390.05,304.74 390.03,262.16 390.02,261.75 C390.01,261.34 389.10,260.10 388.00,259.00 C385.61,256.61 381.45,256.37 380.61,258.58 C379.60,261.21 379.93,267.84 381.10,268.56 C381.76,268.97 381.95,270.51 381.58,272.36 C381.23,274.08 380.97,310.77 380.99,353.91 L 381.02 432.33 L 383.20 436.68 C385.67,441.64 385.51,441.92 378.50,444.53 C377.71,444.83 376.91,445.08 376.06,445.29 C376.68,445.05 377.22,444.78 377.70,444.46 L 380.15 442.85 L 379.83 339.58 C379.61,271.59 379.39,246.30 378.73,238.07 C378.96,239.78 379.13,241.88 379.21,244.05 L 379.50 252.50 L 385.74 252.80 C391.23,253.06 392.05,253.36 392.52,255.30 C392.81,256.51 392.93,302.73 392.77,358.00 L 392.50 458.50 L 367.30 458.77 L 342.09 459.03 ZM 173.50 457.77 C173.26,457.07 172.93,454.02 172.78,451.00 L 172.50 445.50 L 168.15 445.35 C173.97,445.51 182.97,445.70 190.12,445.79 C197.15,445.89 201.08,445.90 203.54,445.67 C201.98,445.90 200.20,446.00 198.09,446.00 C194.24,446.00 189.95,446.52 188.55,447.16 C186.67,448.02 185.36,448.03 183.58,447.22 C181.48,446.26 180.94,446.44 179.58,448.52 C176.12,453.79 178.57,457.64 184.76,456.66 C186.81,456.33 189.18,456.52 190.00,457.07 C191.64,458.17 202.86,457.38 206.77,455.90 C208.07,455.40 211.14,455.00 213.59,455.00 C217.49,455.00 218.18,454.67 219.05,452.37 C219.60,450.92 220.07,446.53 220.09,442.62 C220.57,355.11 220.42,337.37 219.21,335.25 C217.81,332.80 215.93,332.43 212.93,334.04 C211.06,335.04 211.00,336.65 211.00,384.57 C211.00,427.21 211.21,434.39 212.52,436.39 C214.56,439.51 213.53,441.69 208.92,444.04 C208.26,444.38 207.57,444.67 206.85,444.91 C207.40,444.65 207.86,444.32 208.38,443.91 L 211.03 441.83 L 210.58 384.66 C210.35,355.90 210.10,337.19 209.71,325.27 C209.82,325.45 209.95,325.62 210.09,325.77 C211.25,326.97 213.63,326.98 218.50,327.24 L 223.50 327.50 L 223.50 458.50 L 198.73 458.77 C179.43,458.98 173.85,458.75 173.50,457.77 ZM 340.87 437.65 C341.67,436.69 342.06,410.42 342.24,344.90 L 342.50 253.50 L 357.80 253.22 L 372.25 252.96 L 372.07 338.48 C372.05,349.71 372.02,360.52 372.00,370.61 L 372.00 347.64 L 372.00 264.79 L 369.50 262.82 C368.12,261.74 367.00,260.23 367.00,259.46 C367.00,256.70 363.04,255.76 354.44,256.48 C348.09,257.01 345.99,257.56 345.46,258.83 C345.08,259.75 344.85,298.92 344.96,345.87 C344.97,352.81 344.98,359.23 344.99,365.16 C345.09,424.93 345.11,435.98 349.22,437.79 C350.15,438.21 351.29,438.15 352.69,438.07 C353.31,438.04 353.97,438.00 354.69,438.00 C358.23,438.00 361.00,437.56 361.00,437.00 C361.00,436.45 361.52,436.00 362.15,436.00 C362.77,436.00 365.25,434.76 367.64,433.25 L 371.77 430.64 C371.74,435.11 371.71,437.58 371.69,437.59 C371.17,437.96 351.23,438.40 339.00,438.47 C339.91,438.25 340.60,437.98 340.87,437.65 ZM 257.35 432.75 C257.70,429.86 257.99,397.91 257.99,361.75 L 258.00 296.00 L 288.00 296.00 L 288.00 311.09 L 285.44 308.53 C283.88,306.97 283.09,305.29 283.42,304.23 C284.22,301.65 282.66,299.88 278.88,299.10 C274.48,298.20 263.92,299.65 262.17,301.40 C261.04,302.53 260.83,313.88 260.95,366.94 C261.05,411.67 261.43,431.85 262.21,433.56 C263.01,435.31 264.12,436.00 266.16,436.00 C267.72,436.00 269.00,436.45 269.00,437.00 C269.00,437.49 270.62,437.90 272.73,437.99 C270.78,438.00 268.57,438.00 266.06,438.00 C262.74,438.00 259.57,437.97 256.73,437.93 ZM 278.00 437.07 C278.00,436.55 278.79,435.88 279.75,435.56 C280.71,435.24 282.96,433.69 284.75,432.11 L 287.63 429.56 C287.56,433.76 287.48,436.20 287.39,436.42 C286.96,437.54 285.01,437.88 274.59,437.97 C276.54,437.87 278.00,437.50 278.00,437.07 ZM 322.00 371.44 C321.78,321.45 321.96,260.55 322.61,241.15 C322.20,254.00 322.00,286.74 322.00,339.96 ZM 461.18 444.98 C458.69,445.96 455.73,446.13 447.53,446.29 C453.53,446.04 459.28,445.53 461.18,444.98 ZM 208.51 308.27 C208.30,307.21 208.06,306.58 207.80,306.26 C207.33,305.69 201.68,305.29 194.21,305.08 C203.23,305.23 207.18,305.58 207.80,306.20 C208.08,306.48 208.32,307.19 208.51,308.27 ZM 329.66 438.32 C329.65,438.32 329.64,438.31 329.64,438.31 C329.29,437.96 329.00,392.96 329.00,338.31 C329.00,392.57 329.30,437.33 329.66,438.32 ZM 165.34 305.13 C159.18,305.34 154.70,305.70 154.20,306.20 C154.76,305.64 158.05,305.30 165.34,305.13 ZM 160.20 437.80 C160.64,438.24 162.16,438.62 164.07,438.83 C161.91,438.77 160.80,438.48 160.25,437.90 C160.20,437.86 160.16,437.78 160.12,437.68 C160.14,437.73 160.17,437.77 160.20,437.80 ZM 159.00 374.91 C159.00,411.07 159.18,428.41 159.68,434.81 C159.16,428.51 159.00,411.70 159.00,374.91 ZM 154.40 443.90 C155.29,444.42 159.18,444.96 163.62,445.19 C159.31,445.01 155.33,444.46 154.40,443.90 ZM 292.84 276.31 C292.15,275.53 283.62,275.07 273.55,274.92 C283.64,275.06 292.19,275.52 292.84,276.30 C292.84,276.31 292.84,276.31 292.84,276.31 ZM 324.39 444.04 C323.82,443.92 323.42,443.80 323.25,443.69 C323.23,443.68 323.21,443.63 323.19,443.54 L 324.25 443.99 C324.29,444.01 324.34,444.02 324.39,444.04 ZM 377.93 234.44 C377.60,234.14 377.12,233.90 376.28,233.71 C377.16,233.87 377.64,234.07 377.83,234.30 C377.87,234.34 377.90,234.39 377.93,234.44 Z" fill="rgb(17,109,56)"/>
<path d="M 377.93 234.44 C378.21,234.97 378.50,236.30 378.73,238.07 C379.39,246.30 379.61,271.59 379.83,339.58 L 380.15 442.85 L 377.70 444.46 C377.22,444.78 376.68,445.05 376.06,445.29 C372.87,446.10 368.91,446.39 361.63,446.45 C357.58,446.37 352.49,446.18 346.00,445.87 C344.48,445.79 342.97,445.72 341.51,445.63 L 341.50 445.50 L 333.00 445.00 C329.91,444.82 326.94,444.50 325.08,444.17 C333.44,445.05 376.13,444.02 377.75,442.74 C379.51,441.35 379.58,241.74 377.87,234.40 C377.89,234.41 377.91,234.43 377.93,234.44 ZM 208.51 308.27 C208.83,310.09 209.00,312.98 209.00,316.68 C209.00,317.11 209.00,317.51 209.00,317.90 C208.99,321.83 208.99,324.01 209.71,325.27 C210.10,337.19 210.35,355.90 210.58,384.66 L 211.03 441.83 L 208.38 443.91 C207.86,444.32 207.40,444.65 206.85,444.91 C205.85,445.25 204.76,445.50 203.54,445.67 C201.08,445.90 197.15,445.89 190.12,445.79 C182.97,445.70 173.97,445.51 168.15,445.35 L 164.05 445.21 C163.91,445.20 163.76,445.20 163.62,445.19 C160.20,445.01 157.11,444.65 155.46,444.26 C158.20,444.76 165.46,444.78 180.96,444.43 C195.01,444.10 207.06,443.66 207.75,443.45 C209.51,442.91 209.58,311.86 207.88,306.36 C208.11,306.70 208.32,307.31 208.51,308.27 ZM 461.18 444.98 C459.28,445.53 453.53,446.04 447.53,446.29 C447.15,446.30 446.76,446.31 446.35,446.31 C444.08,446.36 442.15,446.40 440.50,446.46 C438.23,446.47 436.15,446.42 434.50,446.31 C431.75,446.11 428.60,445.52 427.50,444.99 C426.40,444.45 421.45,443.90 416.50,443.76 C421.49,443.83 428.18,443.84 435.43,443.77 L 462.04 443.50 C461.95,444.27 461.86,444.66 461.75,444.74 L 461.75 444.75 C461.56,444.83 461.37,444.91 461.18,444.98 ZM 246.37 443.74 C251.46,443.83 258.61,443.84 266.43,443.77 L 293.06 443.50 C292.86,444.22 292.63,444.53 292.37,444.72 C290.25,446.27 259.95,446.55 258.44,445.04 C257.91,444.51 253.21,443.95 247.99,443.79 ZM 462.79 211.28 C462.92,235.92 463.00,271.83 463.00,311.46 C463.00,380.65 462.89,416.27 462.52,432.69 L 462.77 312.00 C462.86,272.12 462.86,235.93 462.79,211.28 ZM 293.70 296.21 C293.89,309.82 294.00,330.84 294.03,360.54 C294.08,413.49 294.05,432.80 293.51,440.12 L 293.76 360.61 C293.85,330.41 293.84,309.60 293.70,296.21 ZM 407.70 177.40 L 408.04 176.00 L 434.91 176.00 C412.58,176.00 408.49,176.18 407.70,177.40 ZM 152.96 396.28 C152.70,356.93 153.10,307.30 154.20,306.20 C153.14,307.26 152.73,356.92 152.96,396.28 ZM 292.84 276.31 C292.85,276.32 292.86,276.33 292.86,276.34 C291.79,275.31 275.69,274.81 261.39,274.90 C265.43,274.86 269.61,274.87 273.55,274.92 C283.62,275.07 292.15,275.53 292.84,276.31 ZM 407.25 200.04 C407.30,186.67 407.39,178.69 407.49,178.25 L 407.56 177.98 C407.43,179.83 407.33,187.86 407.25,200.04 ZM 407.68 443.35 C407.76,443.42 408.33,443.49 409.30,443.55 L 407.50 443.50 L 407.49 438.04 C407.55,441.41 407.61,443.28 407.68,443.35 ZM 238.68 443.35 C238.76,443.43 239.37,443.50 240.43,443.56 L 238.50 443.50 L 238.49 439.73 C238.55,442.02 238.62,443.28 238.68,443.35 ZM 376.32 233.72 C373.26,233.21 365.44,233.00 350.41,233.00 C366.09,233.00 373.37,233.17 376.28,233.71 ZM 165.34 305.13 C165.94,305.12 166.58,305.11 167.23,305.09 C160.10,305.29 154.74,305.66 154.20,306.20 C154.71,305.70 159.18,305.34 165.34,305.13 ZM 323.46 443.66 L 323.19 443.54 C323.15,443.38 323.11,443.10 323.07,442.70 C323.19,443.18 323.32,443.47 323.46,443.66 ZM 322.00 371.44 L 322.00 339.96 C322.00,352.52 322.00,363.57 322.01,373.27 C322.01,372.66 322.00,372.05 322.00,371.44 ZM 238.69 279.69 C238.81,277.69 238.94,276.63 239.10,276.38 C238.95,276.80 238.81,277.86 238.69,279.69 ZM 462.30 177.40 C462.34,177.46 462.37,177.52 462.39,177.58 C462.41,177.62 462.42,177.74 462.43,177.94 Z" fill="rgb(46,140,90)"/>
<path d="M 442.45 438.18 C439.80,438.29 436.89,438.39 433.88,438.48 C415.32,439.05 413.20,438.95 412.63,437.48 C412.28,436.57 412.00,378.72 412.00,308.92 L 412.00 182.00 L 414.02 182.00 L 413.76 308.25 C413.62,377.69 413.66,435.06 413.86,435.75 C414.09,436.58 416.35,437.00 420.60,437.00 L 421.11 437.00 C424.90,437.00 428.00,437.34 428.00,437.75 C428.00,438.16 435.31,438.28 442.45,438.18 ZM 154.40 443.90 C154.36,443.88 154.33,443.86 154.30,443.83 C153.58,443.24 153.13,421.94 152.96,396.28 C152.73,356.92 153.14,307.27 154.20,306.20 L 154.20 306.20 C154.74,305.66 160.10,305.29 167.23,305.09 C170.91,305.03 175.45,305.00 181.00,305.00 C186.27,305.00 190.64,305.03 194.21,305.08 C201.68,305.29 207.33,305.69 207.80,306.26 C207.83,306.29 207.85,306.33 207.88,306.36 C207.96,306.62 208.03,307.17 208.11,307.98 L 181.76 308.23 L 154.50 308.50 L 154.50 374.50 C154.50,410.80 154.83,441.29 155.23,442.27 C155.90,443.90 157.90,444.01 182.23,443.77 L 207.27 443.51 C204.81,443.74 193.70,444.13 180.96,444.43 C165.46,444.78 158.20,444.76 155.46,444.26 C154.97,444.14 154.61,444.02 154.40,443.90 ZM 416.88 112.43 C424.40,103.48 431.46,94.41 435.51,88.22 C437.05,85.86 438.80,84.10 439.40,84.30 C440.13,84.54 440.67,92.13 441.00,107.08 C441.42,126.12 441.73,129.50 443.00,129.50 C444.29,129.50 444.54,125.52 444.77,100.75 L 445.03 72.00 L 441.77 71.94 C424.37,71.60 389.31,72.31 388.59,73.02 C388.05,73.55 388.19,74.53 388.95,75.44 C389.18,75.72 389.56,75.95 390.21,76.15 C387.84,75.85 387.05,75.45 386.67,74.83 C385.90,73.63 385.98,72.73 386.93,71.58 C388.07,70.21 391.94,70.00 416.46,70.00 L 444.68 70.00 L 445.70 72.25 C446.32,73.62 446.68,84.93 446.61,101.21 C446.51,125.34 446.33,128.10 444.73,129.70 C443.36,131.07 442.57,131.22 441.23,130.38 C439.70,129.41 439.44,126.75 439.00,107.73 L 438.50 86.17 L 435.50 90.27 C433.85,92.52 430.48,96.69 428.00,99.54 C426.04,101.79 421.48,107.08 416.88,112.43 ZM 223.79 217.42 C206.21,220.86 202.10,221.10 180.00,221.75 C157.06,222.42 154.71,222.57 154.52,224.14 C154.71,222.57 156.98,222.42 178.48,221.69 C195.17,221.13 202.68,220.52 203.19,219.69 C203.63,218.98 206.64,218.46 210.71,218.40 C215.64,218.33 219.25,218.13 223.79,217.42 ZM 208.91 336.10 C209.27,366.03 209.15,410.57 208.55,431.61 L 208.76 375.73 ZM 359.08 159.15 C367.76,153.04 372.28,149.09 384.86,137.65 C386.05,136.56 387.26,135.44 388.48,134.28 C404.36,118.86 420.15,100.85 430.25,86.28 C419.96,101.12 403.46,120.09 388.48,134.28 C381.16,141.40 373.81,147.96 367.00,153.38 C365.28,154.75 362.47,156.78 359.08,159.15 C356.17,161.20 352.80,163.49 348.50,166.39 C343.65,169.66 339.14,172.60 334.83,175.29 C342.46,170.45 352.03,164.08 359.08,159.15 ZM 292.77 196.93 C292.11,197.22 291.51,197.48 291.00,197.70 C285.33,200.19 277.99,202.90 270.07,205.50 C277.69,202.93 285.32,200.05 292.77,196.93 ZM 317.72 185.23 C312.31,188.11 306.96,190.71 301.35,193.20 C306.98,190.65 312.46,187.99 317.72,185.23 ZM 243.88 213.09 C241.36,213.72 238.90,214.30 236.53,214.83 C238.71,214.32 241.14,213.75 243.88,213.09 Z" fill="rgb(75,75,74)"/>
<path d="M 376.32 233.72 C377.09,233.90 377.55,234.12 377.87,234.40 C379.58,241.74 379.51,441.35 377.75,442.74 C377.65,442.82 377.39,442.90 377.00,442.97 L 377.00 339.06 C377.00,281.89 376.62,234.88 376.15,234.59 C375.68,234.30 363.64,234.02 349.40,233.97 L 324.17 233.87 C326.12,233.06 331.53,233.00 350.41,233.00 C365.44,233.00 373.26,233.21 376.32,233.72 ZM 323.25 338.43 L 322.99 441.75 C322.50,434.30 322.16,406.34 322.01,373.27 L 322.01 373.26 C322.00,363.56 322.00,352.52 322.00,339.96 C322.00,286.74 322.20,254.00 322.61,241.15 C322.74,237.43 322.88,235.23 323.04,234.93 C323.17,234.69 323.30,234.48 323.50,234.29 ZM 278.16 439.00 C272.74,439.00 262.91,439.29 256.31,439.65 C249.50,440.01 244.13,439.90 243.90,439.40 C243.68,438.90 243.62,403.06 243.76,359.75 L 244.00 288.22 L 244.00 358.83 C244.00,401.64 244.30,436.97 244.67,437.33 C245.03,437.70 247.90,438.00 251.03,438.00 L 256.72 438.00 L 256.73 437.93 C259.57,437.97 262.74,438.00 266.06,438.00 C268.57,438.00 270.78,438.00 272.73,437.99 C272.98,437.99 273.24,438.00 273.50,438.00 C273.88,438.00 274.24,437.99 274.59,437.97 C285.01,437.88 286.96,437.54 287.39,436.42 C287.48,436.20 287.56,433.76 287.63,429.56 L 288.00 429.24 L 288.00 439.00 ZM 324.39 444.04 C324.34,444.02 324.29,444.01 324.25,443.99 L 323.46 443.66 C323.35,443.51 323.25,443.31 323.15,443.00 L 376.86 443.00 C370.45,444.15 332.87,444.99 325.08,444.17 C324.83,444.13 324.60,444.09 324.39,444.04 Z" fill="rgb(136,168,151)"/>
<path d="M 155.23 442.27 C154.83,441.29 154.50,410.80 154.50,374.50 L 154.50 308.50 L 181.76 308.23 L 209.01 307.97 L 208.76 375.73 L 208.50 443.50 L 182.23 443.77 C157.90,444.01 155.90,443.90 155.23,442.27 ZM 191.15 438.00 L 203.00 438.00 L 203.00 375.00 L 203.00 312.00 L 182.58 312.00 C171.35,312.00 161.45,312.27 160.58,312.61 C159.16,313.15 159.00,319.57 159.00,374.91 C159.00,422.90 159.28,436.89 160.25,437.90 C161.19,438.88 163.74,439.06 170.40,438.60 C175.30,438.27 184.64,438.00 191.15,438.00 ZM 238.68 443.35 C238.31,442.97 238.00,405.48 238.00,360.03 C238.00,297.10 238.29,277.11 239.20,276.20 C241.05,274.35 291.34,274.50 292.88,276.36 C293.71,277.35 293.94,300.20 293.76,360.61 L 293.50 443.50 L 266.43 443.77 C251.55,443.91 239.06,443.72 238.68,443.35 ZM 278.16 439.00 L 288.00 439.00 L 288.00 360.00 L 288.00 281.00 L 266.01 281.00 L 244.02 281.00 L 243.76 359.75 C243.62,403.06 243.68,438.90 243.90,439.40 C244.13,439.90 249.50,440.01 256.31,439.65 C262.91,439.29 272.74,439.00 278.16,439.00 ZM 407.68 443.35 C406.84,442.51 406.76,179.78 407.61,177.58 C408.14,176.19 411.50,176.00 435.09,176.00 L 461.96 176.00 L 462.51 178.25 C462.80,179.49 462.92,239.68 462.77,312.00 L 462.50 443.50 L 435.43 443.77 C420.55,443.91 408.06,443.72 407.68,443.35 ZM 455.75 437.45 C456.74,437.14 457.00,410.68 457.00,309.53 L 457.00 182.00 L 434.50 182.00 L 412.00 182.00 L 412.00 308.92 C412.00,378.72 412.28,436.57 412.63,437.48 C413.20,438.95 415.32,439.05 433.88,438.48 C445.22,438.13 455.06,437.67 455.75,437.45 ZM 323.25 338.43 L 323.50 233.87 L 349.40 233.97 C363.64,234.02 375.68,234.30 376.15,234.59 C376.62,234.88 377.00,281.89 377.00,339.06 L 377.00 443.00 L 350.00 443.00 L 322.99 443.00 L 323.25 338.43 ZM 371.69 437.59 C371.79,437.52 371.96,392.92 372.07,338.48 L 372.28 239.50 L 350.64 239.23 L 329.00 238.96 L 329.00 338.31 C329.00,392.96 329.29,437.96 329.64,438.31 C330.14,438.81 370.94,438.12 371.69,437.59 ZM 157.00 227.18 C155.45,226.70 154.50,225.67 154.50,224.45 C154.50,222.59 155.62,222.47 180.00,221.75 C205.18,221.01 207.00,220.80 232.00,215.79 C250.38,212.10 276.28,204.16 291.00,197.70 C292.92,196.86 296.30,195.39 298.50,194.44 C315.20,187.25 329.24,179.37 348.50,166.39 C365.63,154.84 368.07,152.92 384.86,137.65 C402.00,122.05 422.09,98.95 432.77,82.53 L 436.04 77.50 L 413.13 77.23 C394.05,77.01 390.00,76.71 388.95,75.44 C388.19,74.53 388.05,73.55 388.59,73.02 C389.31,72.31 424.37,71.60 441.77,71.94 L 445.03 72.00 L 444.77 100.75 C444.54,125.52 444.29,129.50 443.00,129.50 C441.73,129.50 441.42,126.12 441.00,107.08 C440.67,92.13 440.13,84.54 439.40,84.30 C438.80,84.10 437.05,85.86 435.51,88.22 C427.27,100.82 406.56,125.36 394.77,136.50 C362.87,166.64 326.80,189.88 288.50,204.97 C276.72,209.61 257.72,215.78 248.50,217.95 C245.75,218.60 241.93,219.51 240.00,219.99 C232.47,221.84 220.23,223.91 204.50,225.97 C194.19,227.32 160.26,228.19 157.00,227.18 Z" fill="rgb(229,239,233)"/>
</g>
</svg>